<svg width="128" height="128" viewBox="0 0 128 128" fill="none" xmlns="http://www.w3.org/2000/svg">
<rect width="128" height="128" fill="white"/>
<rect width="128" height="128" rx="16" fill="white"/>
<path d="M42.3334 79.6667H30.6667V46.3333C30.6667 41.3333 34 35.5 39 31.3333C44 27.1667 54 24.6667 54 24.6667H74C74 24.6667 84 27.1667 89 31.3333C94 35.5 97.3334 41.3333 97.3334 46.3333V79.6667H85.6667" stroke="black" stroke-width="2" stroke-linecap="round" stroke-linejoin="round"/>
<path d="M74 24.6667C74 27.3188 72.9465 29.8624 71.0711 31.7377C69.1957 33.6131 66.6522 34.6667 64 34.6667C61.3479 34.6667 58.8043 33.6131 56.929 31.7377C55.0536 29.8624 54 27.3188 54 24.6667M85.6667 46.3333V91.3333H42.3334V46.3333H85.6667Z" stroke="black" stroke-width="2" stroke-linecap="round" stroke-linejoin="round"/>
<path d="M72.1855 106.762C72.1855 106.43 72.0684 106.176 71.834 106C71.5996 105.82 71.1777 105.633 70.5684 105.438C69.959 105.238 69.4766 105.043 69.1211 104.852C68.1523 104.328 67.668 103.623 67.668 102.736C67.668 102.275 67.7969 101.865 68.0547 101.506C68.3164 101.143 68.6895 100.859 69.1738 100.656C69.6621 100.453 70.209 100.352 70.8145 100.352C71.4238 100.352 71.9668 100.463 72.4434 100.686C72.9199 100.904 73.2891 101.215 73.5508 101.617C73.8164 102.02 73.9492 102.477 73.9492 102.988H72.1914C72.1914 102.598 72.0684 102.295 71.8223 102.08C71.5762 101.861 71.2305 101.752 70.7852 101.752C70.3555 101.752 70.0215 101.844 69.7832 102.027C69.5449 102.207 69.4258 102.445 69.4258 102.742C69.4258 103.02 69.5645 103.252 69.8418 103.439C70.123 103.627 70.5352 103.803 71.0781 103.967C72.0781 104.268 72.8066 104.641 73.2637 105.086C73.7207 105.531 73.9492 106.086 73.9492 106.75C73.9492 107.488 73.6699 108.068 73.1113 108.49C72.5527 108.908 71.8008 109.117 70.8555 109.117C70.1992 109.117 69.6016 108.998 69.0625 108.76C68.5234 108.518 68.1113 108.188 67.8262 107.77C67.5449 107.352 67.4043 106.867 67.4043 106.316H69.168C69.168 107.258 69.7305 107.729 70.8555 107.729C71.2734 107.729 71.5996 107.645 71.834 107.477C72.0684 107.305 72.1855 107.066 72.1855 106.762Z" fill="#D79B00"/>
<path d="M82.0879 109H80.3301V105.344H76.9023V109H75.1445V100.469H76.9023V103.926H80.3301V100.469H82.0879V109Z" fill="#D79B00"/>
<path d="M90.6367 104.928C90.6367 105.768 90.4883 106.504 90.1914 107.137C89.8945 107.77 89.4688 108.258 88.9141 108.602C88.3633 108.945 87.7305 109.117 87.0156 109.117C86.3086 109.117 85.6777 108.947 85.123 108.607C84.5684 108.268 84.1387 107.783 83.834 107.154C83.5293 106.521 83.375 105.795 83.3711 104.975V104.553C83.3711 103.713 83.5215 102.975 83.8223 102.338C84.127 101.697 84.5547 101.207 85.1055 100.867C85.6602 100.523 86.293 100.352 87.0039 100.352C87.7148 100.352 88.3457 100.523 88.8965 100.867C89.4512 101.207 89.8789 101.697 90.1797 102.338C90.4844 102.975 90.6367 103.711 90.6367 104.547V104.928ZM88.8555 104.541C88.8555 103.646 88.6953 102.967 88.375 102.502C88.0547 102.037 87.5977 101.805 87.0039 101.805C86.4141 101.805 85.959 102.035 85.6387 102.496C85.3184 102.953 85.1562 103.625 85.1523 104.512V104.928C85.1523 105.799 85.3125 106.475 85.6328 106.955C85.9531 107.436 86.4141 107.676 87.0156 107.676C87.6055 107.676 88.0586 107.445 88.375 106.984C88.6914 106.52 88.8516 105.844 88.8555 104.957V104.541Z" fill="#D79B00"/>
<path d="M93.6719 105.994V109H91.9141V100.469H95.2422C95.8828 100.469 96.4453 100.586 96.9297 100.82C97.418 101.055 97.793 101.389 98.0547 101.822C98.3164 102.252 98.4473 102.742 98.4473 103.293C98.4473 104.129 98.1602 104.789 97.5859 105.273C97.0156 105.754 96.2246 105.994 95.2129 105.994H93.6719ZM93.6719 104.57H95.2422C95.707 104.57 96.0605 104.461 96.3027 104.242C96.5488 104.023 96.6719 103.711 96.6719 103.305C96.6719 102.887 96.5488 102.549 96.3027 102.291C96.0566 102.033 95.7168 101.9 95.2832 101.893H93.6719V104.57Z" fill="#D79B00"/>
<path d="M35.459 106.158C35.3926 107.076 35.0527 107.799 34.4395 108.326C33.8301 108.854 33.0254 109.117 32.0254 109.117C30.9316 109.117 30.0703 108.75 29.4414 108.016C28.8164 107.277 28.5039 106.266 28.5039 104.98V104.459C28.5039 103.639 28.6484 102.916 28.9375 102.291C29.2266 101.666 29.6387 101.188 30.1738 100.855C30.7129 100.52 31.3379 100.352 32.0488 100.352C33.0332 100.352 33.8262 100.615 34.4277 101.143C35.0293 101.67 35.377 102.41 35.4707 103.363H33.7129C33.6699 102.812 33.5156 102.414 33.25 102.168C32.9883 101.918 32.5879 101.793 32.0488 101.793C31.4629 101.793 31.0234 102.004 30.7305 102.426C30.4414 102.844 30.293 103.494 30.2852 104.377V105.021C30.2852 105.943 30.4238 106.617 30.7012 107.043C30.9824 107.469 31.4238 107.682 32.0254 107.682C32.5684 107.682 32.9727 107.559 33.2383 107.312C33.5078 107.062 33.6621 106.678 33.7012 106.158H35.459Z" fill="black"/>
<path d="M39.7715 105.877H38.3711V109H36.6133V100.469H39.7832C40.791 100.469 41.5684 100.693 42.1152 101.143C42.6621 101.592 42.9355 102.227 42.9355 103.047C42.9355 103.629 42.8086 104.115 42.5547 104.506C42.3047 104.893 41.9238 105.201 41.4121 105.432L43.2578 108.918V109H41.3711L39.7715 105.877ZM38.3711 104.453H39.7891C40.2305 104.453 40.5723 104.342 40.8145 104.119C41.0566 103.893 41.1777 103.582 41.1777 103.188C41.1777 102.785 41.0625 102.469 40.832 102.238C40.6055 102.008 40.2559 101.893 39.7832 101.893H38.3711V104.453Z" fill="black"/>
<path d="M50.9219 106.539L52.0703 100.469H53.8223L51.9297 109H50.1602L48.7715 103.293L47.3828 109H45.6133L43.7207 100.469H45.4727L46.627 106.527L48.0332 100.469H49.5215L50.9219 106.539Z" fill="black"/>
<path d="M61.7148 109H59.957L56.5352 103.387V109H54.7773V100.469H56.5352L59.9629 106.094V100.469H61.7148V109Z" fill="black"/>
<path d="M66.4316 106.029H63.1328V104.664H66.4316V106.029Z" fill="black"/>
</svg>
